<?xml version="1.0" encoding="UTF-8"?>
<!DOCTYPE svg PUBLIC "-//W3C//DTD SVG 1.1//EN" "http://www.w3.org/Graphics/SVG/1.1/DTD/svg11.dtd">
<!-- Creator: CorelDRAW -->
<svg xmlns="http://www.w3.org/2000/svg" xml:space="preserve" width="91.4399mm" height="91.4399mm" version="1.1" style="shape-rendering:geometricPrecision; text-rendering:geometricPrecision; image-rendering:optimizeQuality; fill-rule:evenodd; clip-rule:evenodd"
viewBox="0 0 9143.98 9143.98"
 xmlns:xlink="http://www.w3.org/1999/xlink"
 xmlns:xodm="http://www.corel.com/coreldraw/odm/2003">
 <defs>
  <style type="text/css">
   <![CDATA[
    .fil0 {fill:none}
    .fil1 {fill:#00005B;fill-rule:nonzero}
   ]]>
  </style>
 </defs>
 <g id="Camada_x0020_1">
  <metadata id="CorelCorpID_0Corel-Layer"/>
  <rect class="fil0" x="-0" y="-0" width="9143.98" height="9143.98"/>
  <path class="fil1" d="M7524.87 114.4l-5905.76 0c-894.47,0 -1619.11,724.99 -1619.11,1619.11l0 5676.92c0,894.47 724.99,1619.11 1619.11,1619.11l5905.76 0c894.47,0 1619.11,-724.99 1619.11,-1619.11l0 -5676.92c0,-894.47 -724.99,-1619.11 -1619.11,-1619.11zm-384.98 4984.33l-1208.59 0c14.74,119.45 54.34,234.59 116.57,337.85 68.73,102.18 165.86,182.05 279.21,229.92 153.98,66.57 320.22,99.31 487.89,95.7 133.12,-2.51 265.53,-16.9 395.43,-43.55 116.57,-15.82 230.62,-45.7 340.01,-88.52 20.52,-16.19 30.59,-6.12 30.59,30.59l0 582.51c1.08,15.82 -2.16,31.66 -8.99,46.05 -6.83,11.15 -16.55,20.52 -27.7,27.7 -121.26,53.61 -248.98,91.76 -379.96,113.33 -178.09,33.47 -358.72,48.94 -539.7,46.05 -290.36,0 -533.94,-44.97 -730.03,-134.92 -185.3,-81.69 -349.38,-205.44 -478.55,-361.96 -120.54,-147.15 -210.49,-317.36 -263.75,-500.11 -52.88,-180.25 -79.88,-367.36 -79.88,-555.19 -0.73,-205.09 31.67,-409.07 95,-604.08 61.17,-190.35 157.95,-367.36 285.31,-521.37 125.59,-152.2 282.46,-275.59 460.19,-361.95 179.9,-87.79 392.55,-119.46 637.94,-119.46 203.65,-5.04 405.49,34.56 591.87,116.57 156.87,66.57 294.68,170.91 401.91,303.32 100.4,129.53 177.39,275.98 227.03,432.5 48.22,150.77 73.05,307.99 73.75,466.26 0,89.95 -3.24,171.64 -8.99,245.39 -6.12,73.4 -11.15,126.66 -15.46,159.38 -1.81,13.66 -7.91,25.92 -18.36,35.26 -10.07,8.99 -23.38,14.04 -37.07,14.04 -24.45,0 -66.19,3.24 -125.93,8.99 -59.36,6.12 -133.11,10.44 -220.93,12.22 -87.79,2.16 -180.98,-12.95 -279.22,-12.95l0.41 0.43zm-1208.59 -558.75l803.44 0c98.24,0 170.91,-1.08 217.69,-3.24 31.32,-3.24 61.88,-13.31 88.87,-29.51l0 -36.69c-1.43,-47.86 -9.37,-95.34 -24.46,-141.05 -33.09,-104.71 -99.66,-195.36 -189.61,-258.7 -89.95,-62.95 -197.53,-94.99 -307.26,-91.02 -103.26,-6.13 -206.17,17.62 -295.77,69.08 -89.95,51.1 -163,127.36 -210.13,219.47 -42.09,85.28 -70.16,177.04 -82.77,271.66zm-2257.36 908.12l-1416.91 0 -288.21 897.36c-3.96,16.2 -13.3,30.59 -26.99,40.66 -13.66,10.07 -29.86,15.11 -46.78,14.38l-717.81 0c-41.01,0 -55.43,-22.29 -42.82,-67.65l1226.92 -3518.48c12.23,-36.69 24.46,-72.67 36.69,-119.8 16.19,-81.69 24.45,-164.79 24.45,-248.28 -0.73,-5.75 -0.35,-11.88 1.81,-17.28 1.81,-5.4 5.05,-10.45 8.99,-14.74 4.32,-4.32 9.37,-7.21 14.74,-8.99 5.75,-1.81 11.53,-2.51 17.28,-1.81l975.43 0c28.42,0 44.97,10.07 48.94,30.59l1392.4 3905.27c12.23,41.01 0,61.53 -36.69,61.17l-797.66 0c-13.66,1.44 -27.35,-2.15 -38.85,-9.71 -11.52,-7.91 -19.43,-19.44 -22.67,-33.1l-312.67 -909.59 0.41 0zm-1195.98 -756.68l969.3 0c-24.46,-81.69 -53.26,-173.77 -85.98,-275.95 -32.75,-102.17 -67.65,-211.56 -104.34,-328.13 -36.69,-116.56 -73.4,-233.16 -110.46,-349.72 -36.69,-116.57 -70.52,-228.84 -101.48,-337.5 -30.59,-108.31 -58.28,-207.25 -82.77,-297.54l-6.13 0c-34.55,165.5 -77.72,329.2 -128.82,490.77 -57.2,183.87 -115.49,372.03 -174.88,564.53 -59.36,192.13 -117.64,370.25 -174.87,533.57l0.43 -0.03z"/>
 </g>
</svg>
