<?xml version="1.0" encoding="UTF-8"?>
<!DOCTYPE svg PUBLIC "-//W3C//DTD SVG 1.1//EN" "http://www.w3.org/Graphics/SVG/1.1/DTD/svg11.dtd">
<!-- Creator: CorelDRAW -->
<svg xmlns="http://www.w3.org/2000/svg" xml:space="preserve" width="91.4399mm" height="91.4399mm" version="1.1" style="shape-rendering:geometricPrecision; text-rendering:geometricPrecision; image-rendering:optimizeQuality; fill-rule:evenodd; clip-rule:evenodd"
viewBox="0 0 9143.98 9143.98"
 xmlns:xlink="http://www.w3.org/1999/xlink"
 xmlns:xodm="http://www.corel.com/coreldraw/odm/2003">
 <defs>
  <style type="text/css">
   <![CDATA[
    .fil0 {fill:none}
    .fil1 {fill:#7C12F7}
   ]]>
  </style>
 </defs>
 <g id="Camada_x0020_1">
  <metadata id="CorelCorpID_0Corel-Layer"/>
  <rect class="fil0" x="-0" y="-0" width="9143.98" height="9143.98"/>
  <path class="fil1" d="M326.97 4757.43c6.94,53.84 29.48,40.46 93.89,52.31 265.39,48.85 470.73,260.03 580.74,497.07 513.43,1106.22 -50.16,2002.98 590.08,2477.64 117.01,86.72 263.11,170.29 459.85,170.29l5040.96 0c345.4,0 612.34,-258.4 720.42,-506.64 100.21,-230.2 75.85,-544.37 75.5,-836.53 -0.63,-513.88 100.53,-1087.6 361.21,-1479.41 262.28,-394.25 567.4,-270.21 567.4,-377.79l0 -367.85c-6.94,-53.84 -29.48,-40.46 -93.89,-52.31 -37.18,-6.85 -70.36,-16.97 -115.96,-33.26 -215.76,-77.13 -365.39,-265.82 -464.68,-463.93 -392.34,-782.91 -153.57,-1721.78 -324.69,-2129.46 -116.7,-277.97 -395.68,-518.35 -725.31,-518.35l-5040.96 0c-195.74,0 -334.8,78.68 -450.35,163.22 -399.56,292.31 -346.15,733.16 -345.6,1179.95 0.7,574.51 -150.51,1664.32 -820.48,1799.5 -56.9,11.48 -108.13,-7.57 -108.13,57.7l0 367.85zm2922.63 1626.97c300.89,1.36 602.09,-0.1 903,-0.1 277.15,0 619.99,18.58 881.59,-29.5 510.48,-93.79 862.67,-364.45 912.52,-899.51 7.87,-242.18 -25.94,-415.73 -133.52,-583.14 -47.07,-73.24 -104.72,-136.03 -165,-183.18 -81.72,-63.89 -143.08,-87.17 -224.11,-142.79l-302.24 -76c154.93,-63.77 197.22,-58.13 327.81,-155.28 91.26,-67.9 110.73,-93.04 176.75,-187.46l52.29 -72.01c13.36,-84.27 90.18,-154.33 89.76,-390.94 -0.75,-416.36 -248.62,-712.36 -662.5,-837.38 -277.17,-83.74 -619.31,-59.83 -920.19,-59.83 -248.8,0 -773.18,-29 -989.57,6.47l0.5 3603.48 52.91 7.17zm538.18 -2086.64c549.22,-1.21 1357.15,106.97 1390.51,-517.47 36.02,-674.28 -834.44,-538.95 -1390.76,-539.33l0.25 1056.8zm-0.23 610.38l0 1002.31 729.87 -0.2c455.89,0.05 829.91,-119.87 829.76,-587.56 -0.15,-464.5 -396.88,-579.78 -846.35,-579.75l-713.43 0.05 0.15 165.15z"/>
 </g>
</svg>
