<?xml version="1.0" encoding="UTF-8"?>
<!DOCTYPE svg PUBLIC "-//W3C//DTD SVG 1.1//EN" "http://www.w3.org/Graphics/SVG/1.1/DTD/svg11.dtd">
<!-- Creator: CorelDRAW -->
<svg xmlns="http://www.w3.org/2000/svg" xml:space="preserve" width="33.7376mm" height="33.7414mm" version="1.1" style="shape-rendering:geometricPrecision; text-rendering:geometricPrecision; image-rendering:optimizeQuality; fill-rule:evenodd; clip-rule:evenodd"
viewBox="0 0 284.34 284.37"
 xmlns:xlink="http://www.w3.org/1999/xlink"
 xmlns:xodm="http://www.corel.com/coreldraw/odm/2003">
 <defs>
  <style type="text/css">
   <![CDATA[
    .fil0 {fill:#F7DF1D}
   ]]>
  </style>
 </defs>
 <g id="PowerClip_x0020_Contents">
  <metadata id="CorelCorpID_0Corel-Layer"/>
  <path class="fil0" d="M74.91 237.86l21.21 -12.99c3.42,4.22 3.62,7.04 8.59,10.81 3.84,2.91 9.94,3.77 15.46,1.84 9.96,-3.47 7.8,-18.93 7.8,-30.32 0,-25.22 -0.71,-51.46 0.04,-76.56l26.71 -0.11c0.6,19.29 0.04,39.42 0.04,58.7 0,16.6 2.1,41.02 -4.57,54.55 -10.1,20.48 -42.49,24.51 -62.19,10.72 -3.41,-2.38 -12.19,-11 -13.1,-16.64zm158.48 -74.23c-3.23,-10.55 -18.68,-14.93 -26,-8.03 -3.75,3.53 -5.22,10.11 -1.52,15.39 2.42,3.46 7.35,6.02 12.37,8.25 19.72,8.76 40.35,15.61 43.79,38.61 3.97,26.52 -13.22,41.87 -36.93,44.26 -12.44,1.25 -25.55,-0.96 -35.09,-6 -8.06,-4.25 -17,-12.35 -20.43,-20.88l21.66 -12.83c15.52,28.07 54.06,15.24 42.81,-3.45 -3.86,-6.42 -17.33,-10.96 -25.96,-14.74 -10.96,-4.8 -17.93,-9.36 -23.81,-16.89 -11.18,-14.31 -10.74,-43.35 13.5,-54.52 13.65,-6.29 36.79,-5.05 47.76,5.94 2.13,2.14 8.2,8.03 8.76,11.92 -3.37,2.39 -17.92,12.11 -20.9,12.99zm-233.39 120.74l283.83 -0.02 0.51 -284.36 -2.63 0.02 -281.2 0 -0.51 284.36z"/>
 </g>
</svg>
