<?xml version="1.0" encoding="UTF-8"?>
<!DOCTYPE svg PUBLIC "-//W3C//DTD SVG 1.1//EN" "http://www.w3.org/Graphics/SVG/1.1/DTD/svg11.dtd">
<!-- Creator: CorelDRAW -->
<svg xmlns="http://www.w3.org/2000/svg" xml:space="preserve" width="211.667mm" height="110.182mm" version="1.1" style="shape-rendering:geometricPrecision; text-rendering:geometricPrecision; image-rendering:optimizeQuality; fill-rule:evenodd; clip-rule:evenodd"
viewBox="0 0 4499.47 2342.19"
 xmlns:xlink="http://www.w3.org/1999/xlink"
 xmlns:xodm="http://www.corel.com/coreldraw/odm/2003">
 <defs>
  <style type="text/css">
   <![CDATA[
    .fil0 {fill:#8993BE}
   ]]>
  </style>
 </defs>
 <g id="PowerClip_x0020_Contents">
  <metadata id="CorelCorpID_0Corel-Layer"/>
  <path class="fil0" d="M4499.47 1171.09c0,-646.78 -1007.24,-1171.09 -2249.74,-1171.09 -1242.49,0 -2249.74,524.32 -2249.74,1171.09 0,646.78 1007.24,1171.09 2249.74,1171.09 1242.49,0 2249.74,-524.32 2249.74,-1171.09zm-3867.7 693.41l246.56 -1248.15 570.11 0c246.54,15.41 369.82,138.67 369.82,354.42 0,369.82 -292.76,585.55 -554.74,570.13l-277.33 0 -61.64 323.59 -292.78 0zm416.04 -554.72l77.05 -462.29 200.31 0c107.86,0 184.9,46.22 184.9,138.67 -15.4,261.97 -138.67,308.2 -277.35,323.61l-184.9 0 -0.02 0zm713.17 231.13l246.54 -1248.13 292.78 0 -61.64 323.58 277.35 0c246.56,15.41 339.01,138.67 308.2,292.78l-107.86 631.77 -308.18 0 107.86 -570.13c15.4,-77.05 15.4,-123.28 -92.45,-123.28l-231.14 -0 -138.67 693.41 -292.78 0zm935.63 323.59l246.54 -1248.15 570.13 0c246.56,15.41 369.84,138.67 369.84,354.42 0,369.82 -292.78,585.55 -554.74,570.13l-277.37 0 -61.64 323.59 -292.76 0zm416.03 -554.72l77.05 -462.29 200.33 0c107.86,0 184.9,46.22 184.9,138.67 -15.4,261.97 -138.67,308.2 -277.35,323.61l-184.92 0 -0.02 0z"/>
 </g>
</svg>
