<?xml version="1.0" encoding="UTF-8"?>
<!DOCTYPE svg PUBLIC "-//W3C//DTD SVG 1.1//EN" "http://www.w3.org/Graphics/SVG/1.1/DTD/svg11.dtd">
<!-- Creator: CorelDRAW -->
<svg xmlns="http://www.w3.org/2000/svg" xml:space="preserve" width="91.4399mm" height="89.1515mm" version="1.1" style="shape-rendering:geometricPrecision; text-rendering:geometricPrecision; image-rendering:optimizeQuality; fill-rule:evenodd; clip-rule:evenodd"
viewBox="0 0 3750.13 3656.28"
 xmlns:xlink="http://www.w3.org/1999/xlink"
 xmlns:xodm="http://www.corel.com/coreldraw/odm/2003">
 <defs>
  <style type="text/css">
   <![CDATA[
    .fil0 {fill:#00005B;fill-rule:nonzero}
   ]]>
  </style>
 </defs>
 <g id="Camada_x0020_1">
  <metadata id="CorelCorpID_0Corel-Layer"/>
  <path class="fil0" d="M3086.1 0l-2422.07 0c-366.84,0 -664.03,297.33 -664.03,664.03l0 2328.22c0,366.84 297.33,664.03 664.03,664.03l2422.07 0c366.84,0 664.03,-297.33 664.03,-664.03l0 -2328.22c0,-366.84 -297.33,-664.03 -664.03,-664.03zm-2345.12 2602.96l0 -1675.41c0,-11.86 5.3,-18.41 15.75,-18.41 27.46,0 53.82,0 91.72,-1.24 39.31,-1.24 80.03,-1.24 123.24,-2.65 44.61,-1.25 91.73,-1.25 141.65,-2.65 49.76,-1.24 99.69,-1.24 148.19,-1.24 133.69,0 243.82,15.75 335.55,49.76 81.27,27.61 155.99,73.47 217.61,133.69 52.41,52.41 93.13,115.44 119.34,186.11 24.96,68.17 38.07,139 38.07,211.07 0,140.24 -32.76,255.68 -97.03,346.16 -65.52,91.71 -155.98,159.89 -262.23,197.96 -110.13,40.72 -233.37,55.06 -365.81,55.06 -39.31,0 -65.52,0 -81.27,-1.25 -15.75,-1.24 -39.31,-1.24 -69.42,-1.24l0 523.07c1.25,11.86 -6.55,20.9 -18.41,22.31l-317.3 0c-13.1,0 -19.66,-6.56 -19.66,-20.9l0.01 -0.18zm353.96 -1379.17l0 546.62c22.31,1.24 44.61,2.65 62.86,2.65l86.58 0c62.86,0 127.14,-9.21 187.5,-28.86 52.41,-14.36 98.28,-45.87 133.69,-86.58 34.16,-40.56 49.76,-95.63 49.76,-167.85 1.24,-49.76 -11.86,-100.93 -38.07,-145.54 -27.46,-41.96 -66.92,-74.72 -114.03,-93.13 -60.37,-24.96 -125.89,-34.16 -192.65,-32.76 -41.96,0 -80.03,0 -110.14,1.24 -30.1,1.24 -53.82,2.65 -65.52,3.9l0.02 0.3zm1103.84 94.37l284.54 0c15.75,0 28.86,11.86 34.01,26.21 5.3,13.1 7.8,26.21 9.21,40.72 2.65,15.75 6.55,34.01 7.8,49.76 1.25,18.41 2.65,38.07 2.65,58.97 48.52,-56.32 107.48,-103.58 174.4,-140.24 74.72,-41.96 161.3,-62.86 247.73,-62.86 11.86,-1.25 20.9,6.55 22.31,18.41l0 323.85c0,13.1 -7.8,18.41 -26.21,18.41 -58.97,-1.24 -119.34,2.65 -175.65,15.75 -47.26,9.2 -93.13,24.96 -136.35,44.61 -31.51,14.35 -60.37,34.01 -82.52,60.37l0 829.91c0,15.75 -6.56,22.31 -20.9,22.31l-321.21 0c-13.1,1.24 -24.96,-6.56 -26.21,-19.66l0 -908.53c0,-39.31 0,-80.03 -1.24,-121.99 -1.25,-41.96 -1.25,-85.18 -2.65,-127.14 0,-38.07 -2.65,-73.47 -6.55,-110.14 -1.24,-7.8 2.65,-15.75 11.86,-18.41 1.24,-1.24 3.9,-1.24 5.3,0l-0.31 -0.32z"/>
 </g>
</svg>
