<?xml version="1.0" encoding="UTF-8"?>
<!DOCTYPE svg PUBLIC "-//W3C//DTD SVG 1.1//EN" "http://www.w3.org/Graphics/SVG/1.1/DTD/svg11.dtd">
<!-- Creator: CorelDRAW -->
<svg xmlns="http://www.w3.org/2000/svg" xml:space="preserve" width="47.7322mm" height="49.0071mm" version="1.1" style="shape-rendering:geometricPrecision; text-rendering:geometricPrecision; image-rendering:optimizeQuality; fill-rule:evenodd; clip-rule:evenodd"
viewBox="0 0 979.46 1005.63"
 xmlns:xlink="http://www.w3.org/1999/xlink"
 xmlns:xodm="http://www.corel.com/coreldraw/odm/2003">
 <defs>
  <style type="text/css">
   <![CDATA[
    .fil0 {fill:black}
   ]]>
  </style>
 </defs>
 <g id="PowerClip_x0020_Contents">
  <metadata id="CorelCorpID_0Corel-Layer"/>
  <path class="fil0" d="M-0 549.45l0 18.34 0.73 3.17c0.48,3.54 0.2,4 1.24,7.84l6.94 19.71c0.07,0.14 0.28,0.51 0.35,0.65 0.24,0.5 0.21,0.47 0.46,1.05l13.72 19.46c1.75,1.73 1.92,2.73 4.31,4.73l21.41 14.82c0.62,0.24 0.88,0.25 1.81,0.68l5.19 2.35c0.33,0.11 0.84,0.24 1.16,0.35 1.31,0.44 0.44,0.09 1.42,0.58l10 3.05c0.06,0.01 0.21,0.03 0.27,0.04 0.07,0.01 0.22,0.02 0.29,0.03 0.08,0.01 0.23,0.02 0.31,0.02l6.18 0.89c7.8,1.78 115.31,0.91 125.84,0.91 95.7,0 191.4,0 287.1,0 -0.72,2.62 -0.28,0.39 0,3.01 -0.44,0.79 0.74,6.31 0.31,11.13 -0.18,1.99 -0.15,7.95 0.04,9.76 0.13,1.25 0.18,1.82 0.13,3.15 -0.01,0.18 -0.07,1.14 -0.07,1.18l-0.17 6.59c0.29,7.82 1.5,32.39 0.7,38.96l0.58 35.36c0.09,2.84 0.56,2.37 0.35,5.21l-0.12 9.22c-0.05,1.23 0.26,2.26 0.33,5.13 0.06,2.37 -0,4.5 -0.16,6.78l0.47 20.09c0,0.11 -0.01,0.25 -0.01,0.36 0,0.11 -0.01,0.25 -0,0.36l0.11 7.94c-0.01,0.16 -0.04,0.61 -0.05,0.76l0.18 18.4c0.47,7.64 0.1,16.56 0.31,24.56 0.01,0.29 0.08,1.25 0.1,1.73l0.36 7.32c0.13,1.44 0.13,1.52 -0,2.95l-0.02 20.18c0.67,4.4 0.46,8.84 0.48,13.36 0,0.06 0.01,0.95 0.02,1 0.03,0.86 0.06,0.25 0.1,1.54l0.07 12.97c-0.63,8.27 0.44,17.59 0.38,25.74l0.03 6.38c0.17,10.31 0.1,10.02 1.35,22.18 0.16,1.57 -0.24,0.17 0.53,2.23l5.03 11.59c0.72,1.14 0.72,0.8 1.58,1.94 2.02,2.66 4.12,5.88 6.86,7.7l4.63 3.39c2.2,1.28 4.12,3.24 6.78,3.33 0.99,1.39 2.33,1.6 2.36,1.61l6.36 1.68c0.47,0.07 1.36,0.15 1.77,0.24 0.14,0.03 0.28,0.06 0.41,0.09 0.13,0.03 0.28,0.08 0.39,0.11l0.72 0.29 13.13 0c0.72,-0.51 -0.13,-0.11 1.08,-0.47 3.96,-1.17 -0.78,0.97 9.25,-2.8l2.01 -0.72c0.06,-0.03 0.19,-0.1 0.25,-0.13l6.02 -3.67 11.05 -11.29c0.63,-0.82 0.9,-1.1 1.58,-1.93l7.95 -10.16c0.06,-0.08 0.15,-0.2 0.21,-0.29l1.93 -2.08c2.31,-2.79 4.06,-5.9 6.55,-8.54l14.45 -18.24c0.06,-0.08 0.15,-0.2 0.21,-0.28l14.11 -17.58c0.6,-0.79 0.35,-0.45 0.89,-1.11l33.79 -42.64c0.06,-0.08 0.15,-0.21 0.21,-0.29l20.67 -26.09c0.6,-0.77 0.94,-1.15 1.58,-1.95 0.6,-0.75 1.09,-1.37 1.79,-2.22l6.28 -7.8c0.06,-0.08 0.16,-0.2 0.22,-0.28l15.27 -19.43c0.06,-0.08 0.15,-0.2 0.21,-0.29l1.14 -1.37c0.06,-0.08 0.16,-0.2 0.23,-0.28l1.32 -1.7c0.45,-0.54 0.4,-0.45 0.91,-1.1 0.5,-0.63 0.31,-0.44 0.88,-1.13 0.15,-0.19 0.59,-0.67 0.7,-0.8l16.03 -20.17c0.73,-0.93 0.86,-1.06 1.58,-1.94 0.07,-0.08 0.16,-0.2 0.23,-0.28 0.07,-0.08 0.15,-0.2 0.22,-0.29l30.22 -38.16c0.06,-0.09 0.15,-0.2 0.22,-0.29 0.06,-0.09 0.14,-0.21 0.21,-0.29 0.09,-0.12 0.34,-0.46 0.43,-0.58l15.81 -19.89c0.4,-0.5 0.49,-0.57 0.92,-1.09 0.07,-0.08 0.16,-0.19 0.23,-0.27l16.24 -20.47c0.73,-0.95 0.85,-0.99 1.59,-1.93l20.89 -26.37c0.06,-0.09 0.15,-0.21 0.21,-0.29l17.82 -22.4c0.39,-0.49 0.42,-0.56 0.89,-1.12l10.79 -13.34c0.54,-0.65 0.34,-0.5 0.86,-1.16l1.58 -1.95c0.19,-0.27 0.53,-0.76 0.83,-1.18l16.25 -20.45c0.07,-0.08 0.15,-0.21 0.21,-0.29l3.61 -4.44c0.24,-0.32 0.56,-0.79 0.84,-1.18 0.53,-0.75 0.94,-1.32 1.51,-2.01 0.45,-0.54 0.55,-0.6 0.93,-1.08l0.65 -0.87c0.07,-0.08 0.15,-0.2 0.22,-0.28 0.69,-0.84 1.02,-1.01 1.69,-1.83l11.24 -14.4c0.06,-0.08 0.15,-0.2 0.22,-0.29 0.07,-0.08 0.15,-0.21 0.22,-0.29l37.01 -46.46c0.15,-0.21 0.56,-0.81 0.83,-1.18l3.32 -4.22c0.48,-0.59 0.5,-0.56 0.92,-1.09 2.94,-3.69 5.84,-8.03 9.1,-11.51 0.53,-0.57 0.52,-0.48 0.98,-1.03l3.05 -4c0.06,-0.08 0.17,-0.19 0.23,-0.27l29.16 -38.22c0.51,-0.86 0.33,-0.55 0.76,-1.25 1.03,-1.66 1.6,-3.02 2.6,-4.93l4.29 -10.81c1.58,-4.85 2.8,-10.2 3.4,-15.21 0.07,-0.56 0.1,-1.34 0.18,-1.82l0.46 -1.49 0 -16.78c-0.07,-0.1 -0.12,-0.25 -0.14,-0.33 -0.99,-3 -0.45,-6.1 -2.05,-11.46l-3.11 -10.46 -8.06 -16.57 -19.36 -21.87c-7.35,-5.58 -15.39,-11.11 -24.27,-13.95 -2.12,-0.68 -3.02,-1.2 -4.73,-1.79 -1.65,-0.58 -3.82,-0.82 -5.7,-1.35l-12.02 -2.06c-2.85,-0.16 -3.25,-0.57 -6.01,-0.56 -18.44,0.02 -36.89,0.04 -55.33,0.06l-350.45 0 -0.51 -74.42c0.01,-8.7 -0.5,-15.3 -0.5,-24.14 0,-16.06 0.77,-33.98 0.08,-49.79 -0.11,-2.44 -0.62,-2.83 -0.6,-6.01 0.15,-30.93 -0.26,-62.2 0.1,-93.03 0.1,-8.36 -0.45,-7.7 -0.61,-12.06 -0.61,-16.37 1.12,-46.44 -0.86,-61.48 -0.34,-2.62 -0.46,-3.27 -1.16,-5.4 -0.47,-1.43 -0.94,-2.85 -1.6,-4.42l-2.26 -4.79c-0.06,-0.09 -0.13,-0.22 -0.19,-0.31l-1.13 -1.89c-4.89,-7.26 -13.47,-14.55 -21.58,-17.11l-9.06 -2.51c-0.06,-0.15 -0.24,-0.08 -0.35,-0.15l-13.65 0 -1.41 0.54c-5.98,1.62 -6.88,1.53 -12.96,4.63l-3.98 2.56c-3.21,2.33 -6.35,5.16 -8.84,8.23 -0.07,0.08 -0.15,0.21 -0.22,0.29l-7.72 9.88c-0.07,0.08 -0.15,0.21 -0.21,0.29l-10.85 13.29c-0.07,0.08 -0.17,0.18 -0.24,0.26 -0.07,0.08 -0.17,0.19 -0.23,0.28l-14.27 18.41c-0.44,0.54 -0.53,0.6 -0.92,1.09 -0.07,0.08 -0.15,0.2 -0.22,0.29 -0.07,0.08 -0.15,0.21 -0.21,0.29l-2.97 3.57c-0.35,0.5 -0.4,0.58 -0.84,1.17l-2.68 3.35c-0.45,0.57 -0.22,0.26 -0.69,0.82 -4.21,5.15 -11.71,15.49 -15.61,19.58l-50.93 64.22c-0.07,0.08 -0.15,0.2 -0.22,0.29 -0.45,0.6 -1.03,1.46 -1.47,2.05l-2.58 2.95c-0.07,0.08 -0.16,0.2 -0.23,0.28l-25.85 32.46c-0.1,0.11 -0.37,0.43 -0.46,0.55l-2.39 3.14c-0.24,0.31 -0.58,0.81 -0.84,1.18 -0.54,0.75 -0.94,1.37 -1.51,2.01l-5.4 6.67c-0.5,0.72 -0.97,1.37 -1.48,2.04l-6.26 7.81c-0.48,0.62 -0.27,0.37 -0.68,0.82l-23.85 29.97c-0.36,0.53 -0.52,0.72 -0.88,1.12l-2.42 3.11c-1.11,1.24 -0.75,0.57 -1.89,2.14l-14.06 17.62c-0.07,0.07 -0.18,0.17 -0.26,0.25 -1.98,2.03 -3.44,4.73 -5.2,6.86 -0.63,0.76 -0.39,0.37 -1.01,1l-1.55 1.99c-0.06,0.09 -0.13,0.22 -0.19,0.31l-23.86 29.93c-0.06,0.09 -0.15,0.21 -0.21,0.29 -0.06,0.09 -0.15,0.21 -0.21,0.29l-8.29 10.31c-0.07,0.08 -0.17,0.19 -0.23,0.27 -0.09,0.11 -0.35,0.45 -0.44,0.57l-9.22 11.89c-0.09,0.11 -0.37,0.43 -0.47,0.54l-6.38 8.21c-0.68,0.87 -0.93,1.03 -1.6,1.92l-13.12 16.54c-0.06,0.09 -0.15,0.21 -0.21,0.29 -0.06,0.08 -0.15,0.21 -0.21,0.29 -0.07,0.08 -0.15,0.2 -0.22,0.28l-19.64 24.61c-0.34,0.48 -0.28,0.44 -0.62,0.89l-13.9 17.3c-0.06,0.08 -0.15,0.21 -0.21,0.3l-14.68 18.48c-0.07,0.08 -0.18,0.18 -0.24,0.26l-1.93 2.6c-0.47,0.51 -0.53,0.49 -0.98,1.03l-1.67 2.35c-0.45,0.62 -0.28,0.4 -0.65,0.86l-5.44 6.63c-0.07,0.08 -0.16,0.2 -0.23,0.28l-2.8 3.73c-0.09,0.11 -0.36,0.44 -0.45,0.56l-0.44 0.57c-0.55,0.69 -0.43,0.52 -0.91,1.1l-9.36 11.77c-0.32,0.45 -0.28,0.43 -0.62,0.88l-6.27 7.81c-0.42,0.54 -0.25,0.36 -0.65,0.86l-9.12 11.49c-0.06,0.08 -0.15,0.2 -0.22,0.29 -0.55,0.7 -0.42,0.51 -0.91,1.1 -0.07,0.08 -0.17,0.19 -0.23,0.27l-10.68 13.45c-0.1,0.11 -0.4,0.39 -0.5,0.5l-0.47 0.53c-0.74,0.95 -0.25,0.42 -0.8,1.21l-1.12 1.39c-0.07,0.08 -0.16,0.19 -0.23,0.27l-2.23 2.8c-0.42,0.54 -0.23,0.35 -0.64,0.87l-4.3 5.25c-0.43,0.52 -0.57,0.8 -0.83,1.19l-7.74 11.36c-0.72,1.19 -0.84,1.26 -1.48,2.55l-2.57 5c-0.37,1.07 -0.38,1.56 -0.85,2.65l-2.24 5.81c-0.42,1.26 -0.61,1.77 -1.02,3 -0.05,0.14 -0.46,1.51 -0.48,1.57l-2.27 11.76c-0.39,1.23 0.12,0.24 -0.42,1z"/>
 </g>
</svg>
