<?xml version="1.0" encoding="UTF-8"?>
<!DOCTYPE svg PUBLIC "-//W3C//DTD SVG 1.1//EN" "http://www.w3.org/Graphics/SVG/1.1/DTD/svg11.dtd">
<!-- Creator: CorelDRAW -->
<svg xmlns="http://www.w3.org/2000/svg" xml:space="preserve" width="91.4399mm" height="91.4476mm" version="1.1" style="shape-rendering:geometricPrecision; text-rendering:geometricPrecision; image-rendering:optimizeQuality; fill-rule:evenodd; clip-rule:evenodd"
viewBox="0 0 9143.98 9144.75"
 xmlns:xlink="http://www.w3.org/1999/xlink"
 xmlns:xodm="http://www.corel.com/coreldraw/odm/2003">
 <defs>
  <style type="text/css">
   <![CDATA[
    .fil0 {fill:none}
    .fil1 {fill:#007ACC}
   ]]>
  </style>
 </defs>
 <g id="Camada_x0020_1">
  <metadata id="CorelCorpID_0Corel-Layer"/>
  <rect class="fil0" x="-0" y="0.76" width="9143.98" height="9143.98"/>
  <path class="fil1" d="M2025.46 4229.35l3204.64 -4.29 10.75 750.67 -1189.53 0.38 -0.95 3379.39 -841.78 0.7 -0.03 -3372.64 -1183.7 -8.21 0.6 -746zm5486.41 1037.39c-137.57,-172.1 -251.7,-403.01 -636.35,-340.19 -290.58,47.45 -421.31,389.88 -221.61,610.32 199.47,220.15 873.26,393.78 1292.76,705.87 463.64,344.91 594.68,956.78 388.11,1448.63 -410.27,976.86 -2074.07,854.76 -2621.99,209.56 -52.1,-61.33 -211.64,-271.49 -238.04,-361.82 104.79,-72.45 225.54,-132.89 339.24,-200.3 94.35,-55.96 258.99,-164.07 354.42,-195.44 67.95,140.1 189.37,257.67 297.38,343.21 501.56,397.37 1339.51,47.43 1058.76,-448.9 -119.39,-211.07 -534.47,-350.9 -813.49,-474.05 -346.37,-152.93 -569.24,-295.98 -757.37,-529.75 -389.21,-483.7 -314.92,-1419.61 409.19,-1737.13 311.79,-136.67 757.99,-161.83 1108.55,-51.2 274.62,86.68 631.49,391.56 688.1,596.61 -59.93,66.22 -556.39,397.28 -647.66,424.58zm-7511.87 3873.5l167.07 2.08 8943.03 0 31.56 -2.08 2.32 -9140.23 -9143.98 2.08 0 9138.15z"/>
 </g>
</svg>
